<svg width="64" height="64" viewBox="0 0 64 64" fill="none" xmlns="http://www.w3.org/2000/svg">
    <path
        fill-rule="evenodd"
        clip-rule="evenodd"
        d="M22 32C25.9907 32 30.8326 32.9718 34.4883 35.4297C37.7021 37.5911 40 40.903 40 45.7148L39.9648 47.5234C39.6355 55.9999 37 56 37 56H7C7 56 4.36452 55.9999 4.03516 47.5234L4 45.7148C4 41.2029 6.02052 38.01 8.92188 35.8477L9.51172 35.4297C13.1674 32.9718 18.0093 32 22 32ZM22 36C18.5202 36 14.5401 36.8714 11.7461 38.75C9.47123 40.2797 8 42.4221 8 45.7148C8.00004 49.1999 8.37757 51.0746 8.67188 52H35.3281C35.6224 51.0746 36 49.1999 36 45.7148C36 42.4221 34.5288 40.2797 32.2539 38.75C29.4599 36.8714 25.4798 36 22 36Z"
        fill="url(#paint0_linear_10830_52566)"
    />
    <path
        d="M44 32C47.5471 32 51.8482 32.972 55.0977 35.4297C57.9552 37.5911 60 40.902 60 45.7148L59.9688 47.5234C59.676 56 57.332 56 57.332 56H42.3281C42.8414 54.922 43.2503 53.608 43.5312 52H55.418C55.6851 50.994 56 49.0881 56 45.7148C56 42.2178 54.5962 40.061 52.6875 38.6172C50.3232 36.8288 46.9498 36 44 36C43.0473 36 42.0514 36.0922 41.0586 36.2695C40.1447 35.0014 39.0595 33.897 37.8594 32.9492C39.9372 32.2965 42.0776 32 44 32Z"
        fill="url(#paint1_linear_10830_52566)"
    />
    <path
        fill-rule="evenodd"
        clip-rule="evenodd"
        d="M22 8C27.5228 8 32 12.4772 32 18C32 23.5228 27.5228 28 22 28C16.4772 28 12 23.5228 12 18C12 12.4772 16.4772 8 22 8ZM22 12C18.6863 12 16 14.6863 16 18C16 21.3137 18.6863 24 22 24C25.3137 24 28 21.3137 28 18C28 14.6863 25.3137 12 22 12Z"
        fill="url(#paint2_linear_10830_52566)"
    />
    <path
        fill-rule="evenodd"
        clip-rule="evenodd"
        d="M44 12C48.4183 12 52 15.5817 52 20C52 24.4183 48.4183 28 44 28C39.5817 28 36 24.4183 36 20C36 15.5817 39.5817 12 44 12ZM44 16C41.7909 16 40 17.7909 40 20C40 22.2091 41.7909 24 44 24C46.2091 24 48 22.2091 48 20C48 17.7909 46.2091 16 44 16Z"
        fill="url(#paint3_linear_10830_52566)"
    />
    <defs>
        <linearGradient
            id="paint0_linear_10830_52566"
            x1="19.4674"
            y1="7.78967"
            x2="23.7681"
            y2="42.5846"
            gradientUnits="userSpaceOnUse"
        >
            <stop stop-color="white" />
            <stop offset="0.647491" stop-color="#CDCBFC" />
            <stop offset="1" stop-color="#9696F9" />
        </linearGradient>
        <linearGradient
            id="paint1_linear_10830_52566"
            x1="19.4674"
            y1="7.78967"
            x2="23.7681"
            y2="42.5846"
            gradientUnits="userSpaceOnUse"
        >
            <stop stop-color="white" />
            <stop offset="0.647491" stop-color="#CDCBFC" />
            <stop offset="1" stop-color="#9696F9" />
        </linearGradient>
        <linearGradient
            id="paint2_linear_10830_52566"
            x1="19.4674"
            y1="7.78967"
            x2="23.7681"
            y2="42.5846"
            gradientUnits="userSpaceOnUse"
        >
            <stop stop-color="white" />
            <stop offset="0.647491" stop-color="#CDCBFC" />
            <stop offset="1" stop-color="#9696F9" />
        </linearGradient>
        <linearGradient
            id="paint3_linear_10830_52566"
            x1="19.4674"
            y1="7.78967"
            x2="23.7681"
            y2="42.5846"
            gradientUnits="userSpaceOnUse"
        >
            <stop stop-color="white" />
            <stop offset="0.647491" stop-color="#CDCBFC" />
            <stop offset="1" stop-color="#9696F9" />
        </linearGradient>
    </defs>
</svg>
