<svg width="72" height="72" viewBox="0 0 72 72" fill="none" xmlns="http://www.w3.org/2000/svg">
    <path
        d="M45.2812 1.40625C46.5239 1.40625 47.5312 2.41361 47.5312 3.65625V23.9062C47.5312 25.1489 46.5239 26.1562 45.2812 26.1562C44.0386 26.1562 43.0312 25.1489 43.0312 23.9062V5.90625H11.3838L29.6152 17.5078C30.2638 17.9209 30.6562 18.6372 30.6562 19.4062V52.0312H43.0312V37.4062C43.0312 36.1636 44.0386 35.1562 45.2812 35.1562C46.5239 35.1562 47.5312 36.1636 47.5312 37.4062V54.2812C47.5312 55.5239 46.5239 56.5312 45.2812 56.5312H30.6562V67.7812C30.6562 68.5752 30.2373 69.3104 29.5547 69.7158C28.8719 70.121 28.0252 70.137 27.3281 69.7568L2.57812 56.2568C1.85553 55.8625 1.40628 55.1044 1.40625 54.2812V3.65625C1.40625 3.58608 1.40959 3.5163 1.41602 3.44727C1.41737 3.43256 1.41926 3.41794 1.4209 3.40332C1.43584 3.27101 1.46261 3.14143 1.5 3.01562C1.50631 2.99435 1.51261 2.97315 1.51953 2.95215C1.53322 2.91061 1.54841 2.86967 1.56445 2.8291C1.57576 2.80054 1.58718 2.77212 1.59961 2.74414C1.6197 2.69885 1.64106 2.65417 1.66406 2.61035C1.67445 2.5906 1.68533 2.57116 1.69629 2.55176C1.71897 2.51152 1.74344 2.47237 1.76855 2.43359C1.77908 2.41737 1.78887 2.40069 1.7998 2.38477C1.83186 2.33795 1.8658 2.29238 1.90137 2.24805C1.91555 2.2304 1.93061 2.2135 1.94531 2.19629C1.97907 2.15671 2.01423 2.11832 2.05078 2.08105C2.05788 2.07382 2.0641 2.06573 2.07129 2.05859C2.11598 2.01425 2.16238 1.97133 2.21094 1.93066C2.22605 1.918 2.24237 1.90681 2.25781 1.89453C2.29145 1.86784 2.32602 1.84224 2.36133 1.81738C2.38235 1.80255 2.40326 1.78756 2.4248 1.77344C2.46438 1.74756 2.5054 1.72371 2.54688 1.7002C2.57737 1.68286 2.60828 1.66632 2.63965 1.65039C2.67301 1.63349 2.70628 1.6167 2.74023 1.60156C2.76511 1.59046 2.79009 1.57956 2.81543 1.56934C2.86086 1.55103 2.90688 1.53474 2.95312 1.51953C2.9713 1.51356 2.98944 1.50748 3.00781 1.50195C3.06333 1.48525 3.11943 1.4713 3.17578 1.45898C3.1959 1.45461 3.21601 1.45013 3.23633 1.44629C3.2869 1.43668 3.3377 1.42896 3.38867 1.42285C3.40751 1.42062 3.42633 1.41778 3.44531 1.41602C3.50899 1.41002 3.57287 1.4078 3.63672 1.40723C3.64323 1.40717 3.64973 1.40625 3.65625 1.40625H45.2812ZM5.90625 52.9453L26.1562 63.9902V20.6406L5.90625 7.75488V52.9453ZM54.9404 16.6904C55.8191 15.8117 57.2434 15.8117 58.1221 16.6904L70.4971 29.0654C70.6023 29.1707 70.6965 29.2868 70.7793 29.4111C70.7923 29.4307 70.8041 29.4509 70.8164 29.4707C70.8429 29.5133 70.8689 29.5562 70.8926 29.6006C70.904 29.622 70.9132 29.6443 70.9238 29.666C70.9453 29.7097 70.9667 29.7536 70.9854 29.7988C70.9984 29.8306 71.0089 29.8633 71.0205 29.8955C71.0329 29.9299 71.0469 29.9638 71.0576 29.999C71.0679 30.0329 71.0753 30.0674 71.084 30.1016C71.1291 30.2792 71.1562 30.4645 71.1562 30.6562C71.1562 30.8476 71.129 31.0326 71.084 31.21C71.0753 31.2442 71.0679 31.2787 71.0576 31.3125C71.0469 31.3477 71.0329 31.3816 71.0205 31.416C71.0089 31.4483 70.9984 31.4809 70.9854 31.5127C70.9667 31.558 70.9453 31.6018 70.9238 31.6455C70.9133 31.6669 70.9038 31.6888 70.8926 31.71C70.7872 31.9083 70.6545 32.0896 70.4971 32.2471L58.1221 44.6221C57.2434 45.5007 55.8191 45.5006 54.9404 44.6221C54.0617 43.7434 54.0617 42.3191 54.9404 41.4404L63.4746 32.9062H36.2812C35.0386 32.9062 34.0312 31.8989 34.0312 30.6562C34.0312 29.4136 35.0386 28.4062 36.2812 28.4062H63.4746L54.9404 19.8721C54.0617 18.9934 54.0617 17.5691 54.9404 16.6904Z"
        fill="url(#paint0_linear_10856_78007)"
    />
    <defs>
        <linearGradient
            id="paint0_linear_10856_78007"
            x1="20.6715"
            y1="1.10554"
            x2="27.6956"
            y2="50.6148"
            gradientUnits="userSpaceOnUse"
        >
            <stop stop-color="white" />
            <stop offset="0.647491" stop-color="#CDCBFC" />
            <stop offset="1" stop-color="#9696F9" />
        </linearGradient>
    </defs>
</svg>
