<svg width="64" height="64" viewBox="0 0 64 64" fill="none" xmlns="http://www.w3.org/2000/svg">
    <path
        fill-rule="evenodd"
        clip-rule="evenodd"
        d="M18 32C21.3137 32 24 34.6863 24 38C24 41.3137 21.3137 44 18 44C14.6863 44 12 41.3137 12 38C12 34.6863 14.6863 32 18 32ZM18 36C16.8954 36 16 36.8954 16 38C16 39.1046 16.8954 40 18 40C19.1046 40 20 39.1046 20 38C20 36.8954 19.1046 36 18 36Z"
        fill="url(#paint0_linear_10830_52549)"
    />
    <path
        fill-rule="evenodd"
        clip-rule="evenodd"
        d="M52 8C56.4183 8 60 11.5817 60 16V52C60 56.4183 56.4183 60 52 60H12C7.58172 60 4 56.4183 4 52V16C4 11.5817 7.58172 8 12 8C13.1046 8 14 8.89543 14 10C14 11.1046 13.1046 12 12 12C9.79086 12 8 13.7909 8 16V24H56V16C56 13.7909 54.2091 12 52 12C50.8954 12 50 11.1046 50 10C50 8.89543 50.8954 8 52 8ZM8 52C8 54.2091 9.79086 56 12 56H52C54.2091 56 56 54.2091 56 52V28H8V52Z"
        fill="url(#paint1_linear_10830_52549)"
    />
    <path
        d="M18 4C19.1046 4 20 4.89543 20 6V12C20 13.1046 19.1046 14 18 14C16.8954 14 16 13.1046 16 12V6C16 4.89543 16.8954 4 18 4Z"
        fill="url(#paint2_linear_10830_52549)"
    />
    <path
        d="M46 4C47.1046 4 48 4.89543 48 6V12C48 13.1046 47.1046 14 46 14C44.8954 14 44 13.1046 44 12V6C44 4.89543 44.8954 4 46 4Z"
        fill="url(#paint3_linear_10830_52549)"
    />
    <path
        d="M40 8C41.1046 8 42 8.89543 42 10C42 11.1046 41.1046 12 40 12H24C22.8954 12 22 11.1046 22 10C22 8.89543 22.8954 8 24 8H40Z"
        fill="url(#paint4_linear_10830_52549)"
    />
    <defs>
        <linearGradient
            id="paint0_linear_10830_52549"
            x1="19.4674"
            y1="3.75461"
            x2="25.2895"
            y2="44.1294"
            gradientUnits="userSpaceOnUse"
        >
            <stop stop-color="white" />
            <stop offset="0.647491" stop-color="#CDCBFC" />
            <stop offset="1" stop-color="#9696F9" />
        </linearGradient>
        <linearGradient
            id="paint1_linear_10830_52549"
            x1="19.4674"
            y1="3.75461"
            x2="25.2895"
            y2="44.1294"
            gradientUnits="userSpaceOnUse"
        >
            <stop stop-color="white" />
            <stop offset="0.647491" stop-color="#CDCBFC" />
            <stop offset="1" stop-color="#9696F9" />
        </linearGradient>
        <linearGradient
            id="paint2_linear_10830_52549"
            x1="19.4674"
            y1="3.75461"
            x2="25.2895"
            y2="44.1294"
            gradientUnits="userSpaceOnUse"
        >
            <stop stop-color="white" />
            <stop offset="0.647491" stop-color="#CDCBFC" />
            <stop offset="1" stop-color="#9696F9" />
        </linearGradient>
        <linearGradient
            id="paint3_linear_10830_52549"
            x1="19.4674"
            y1="3.75461"
            x2="25.2895"
            y2="44.1294"
            gradientUnits="userSpaceOnUse"
        >
            <stop stop-color="white" />
            <stop offset="0.647491" stop-color="#CDCBFC" />
            <stop offset="1" stop-color="#9696F9" />
        </linearGradient>
        <linearGradient
            id="paint4_linear_10830_52549"
            x1="19.4674"
            y1="3.75461"
            x2="25.2895"
            y2="44.1294"
            gradientUnits="userSpaceOnUse"
        >
            <stop stop-color="white" />
            <stop offset="0.647491" stop-color="#CDCBFC" />
            <stop offset="1" stop-color="#9696F9" />
        </linearGradient>
    </defs>
</svg>
