<svg width="1024" height="1024" viewBox="0 0 1024 1024" fill="none" xmlns="http://www.w3.org/2000/svg">
<path fill-rule="evenodd" clip-rule="evenodd" d="M619.522 408.488L619.566 408.524L398.222 654.222L113.778 341.131V206.077C113.778 190.569 131.853 182.084 143.784 191.992L459.362 454.067C489.879 479.41 534.122 479.41 564.638 454.067L619.522 408.488Z" fill="url(#paint0_linear_19139_997)"/>
<path d="M739.556 308.807L619.522 408.489L619.566 408.525L460.638 548.913C433.564 572.828 393.097 573.43 365.324 550.332L113.778 341.132V742.5C113.778 788.003 150.665 824.891 196.169 824.891H739.556L796.445 566.849L739.556 308.807Z" fill="url(#paint1_radial_19139_997)"/>
<path fill-rule="evenodd" clip-rule="evenodd" d="M739.556 308.907V824.889L827.831 824.889C873.334 824.889 910.222 787.999 910.222 742.499V206.078C910.222 190.569 892.146 182.083 880.216 191.993L739.556 308.907Z" fill="url(#paint2_linear_19139_997)"/>
<defs>
<linearGradient id="paint0_linear_19139_997" x1="412.644" y1="658.553" x2="145.53" y2="-269.354" gradientUnits="userSpaceOnUse">
<stop stop-color="#E3D9FF"/>
<stop offset="1" stop-color="#7341FF"/>
</linearGradient>
<radialGradient id="paint1_radial_19139_997" cx="0" cy="0" r="1" gradientUnits="userSpaceOnUse" gradientTransform="translate(793.471 371.98) scale(796.108 750.394)">
<stop offset="0.5561" stop-color="#6D4AFF"/>
<stop offset="0.9944" stop-color="#AA8EFF"/>
</radialGradient>
<linearGradient id="paint2_linear_19139_997" x1="1167.79" y1="1237.96" x2="553.374" y2="-87.4587" gradientUnits="userSpaceOnUse">
<stop offset="0.271" stop-color="#E3D9FF"/>
<stop offset="1" stop-color="#7341FF"/>
</linearGradient>
</defs>
</svg>
