<svg width="48" height="48" viewBox="0 0 48 48" fill="none" xmlns="http://www.w3.org/2000/svg">
    <g clip-path="url(#clip0_44246_49367)">
        <path
            d="M26.125 28.8474L28.0893 27.8652L31.5268 29.8295H37.4197L37.4196 38.1331L36.9286 38.6242H27.5982C26.7846 38.6242 26.125 37.9646 26.125 37.1509L26.125 28.8474Z"
            fill="url(#paint0_radial_44246_49367)"
        />
        <path
            fill-rule="evenodd"
            clip-rule="evenodd"
            d="M31.5077 28.0754C31.7595 28.2585 32.0628 28.3571 32.3742 28.3571L38.4018 28.3571C39.2154 28.3571 39.875 29.0167 39.875 29.8304V37.1518C39.875 37.9654 39.2154 38.625 38.4018 38.625H36.9286V31.5491C36.9286 30.8711 36.3789 30.3214 35.7009 30.3214H30.5446C30.2259 30.3214 29.9157 30.218 29.6607 30.0268L28.4821 29.1429C28.2271 28.9516 27.917 28.8482 27.5982 28.8482L26.125 28.8482C26.125 28.0346 26.7846 27.375 27.5982 27.375H30.0656C30.3769 27.375 30.6803 27.4736 30.9321 27.6568L31.5077 28.0754Z"
            fill="url(#paint1_linear_44246_49367)"
        />
        <path
            fill-rule="evenodd"
            clip-rule="evenodd"
            d="M31.6481 21.4664C32.1706 22.4058 33.5126 22.4567 34.1059 21.5596L39.638 13.1944C40.2246 12.3073 39.6633 11.1179 38.601 10.997L27.7275 9.75982C26.5682 9.62792 25.7428 10.8503 26.3067 11.864L26.3509 11.9431L31.2027 15.2676L31.1438 20.5565L31.6481 21.4664Z"
            fill="url(#paint2_linear_44246_49367)"
        />
        <path
            d="M31.9596 20.5905L32.4506 19.8583L36.1799 14.2249C36.5059 13.7324 36.1947 13.0717 35.6048 13.004L26.3496 11.9414L31.1441 20.5606C31.319 20.8691 31.7615 20.8861 31.9596 20.5905Z"
            fill="url(#paint3_radial_44246_49367)"
        />
        <path
            d="M12.2598 27.862C13.219 26.9028 13.6986 26.4232 14.2516 26.2435C14.7381 26.0855 15.2621 26.0855 15.7485 26.2435C16.3016 26.4232 16.7812 26.9028 17.7403 27.862L20.1381 30.2597C21.0973 31.2189 21.5769 31.6985 21.7565 32.2515C21.9146 32.738 21.9146 33.262 21.7565 33.7485C21.5769 34.3015 21.0973 34.7811 20.1381 35.7403L17.7403 38.138C16.7812 39.0972 16.3016 39.5768 15.7485 39.7565C15.2621 39.9145 14.7381 39.9145 14.2516 39.7565C13.6986 39.5768 13.219 39.0972 12.2598 38.138L11.809 37.6326C11.5362 37.3268 11.3998 37.1738 11.3026 36.9999C11.2163 36.8457 11.153 36.6797 11.1147 36.5071C11.0715 36.3126 11.0715 36.1077 11.0715 35.6979L11.0715 30.3021C11.0715 29.8923 11.0715 29.6874 11.1147 29.4929C11.153 29.3203 11.2163 29.1543 11.3026 29.0001C11.3998 28.8262 11.5362 28.6732 11.809 28.3674L12.2598 27.862Z"
            fill="url(#paint4_radial_44246_49367)"
        />
        <path
            d="M12.2598 27.862C13.219 26.9028 13.6986 26.4232 14.2516 26.2435C14.7381 26.0855 15.2621 26.0855 15.7485 26.2435C16.3016 26.4232 16.7812 26.9028 17.7403 27.862L20.1381 30.2597C21.0973 31.2189 21.5769 31.6985 21.7565 32.2515C21.9146 32.738 21.9146 33.262 21.7565 33.7485C21.5769 34.3015 21.0973 34.7811 20.1381 35.7403L17.7403 38.138C16.7812 39.0972 16.3016 39.5768 15.7485 39.7565C15.2621 39.9145 14.7381 39.9145 14.2516 39.7565C13.6986 39.5768 13.219 39.0972 12.2598 38.138L11.809 37.6326C11.5362 37.3268 11.3998 37.1738 11.3026 36.9999C11.2163 36.8457 11.153 36.6797 11.1147 36.5071C11.0715 36.3126 11.0715 36.1077 11.0715 35.6979L11.0715 30.3021C11.0715 29.8923 11.0715 29.6874 11.1147 29.4929C11.153 29.3203 11.2163 29.1543 11.3026 29.0001C11.3998 28.8262 11.5362 28.6732 11.809 28.3674L12.2598 27.862Z"
            fill="url(#paint5_linear_44246_49367)"
        />
        <path
            d="M12.0885 28.0326C12.5681 27.553 12.8079 27.3132 13.0844 27.2233C13.3276 27.1443 13.5896 27.1443 13.8328 27.2233C14.1093 27.3132 14.3491 27.553 14.8287 28.0326L18.4253 31.6292C18.9049 32.1088 19.1447 32.3485 19.2346 32.6251C19.3136 32.8683 19.3136 33.1303 19.2346 33.3735C19.1447 33.65 18.9049 33.8898 18.4253 34.3694L14.8287 37.966C14.3491 38.4456 14.1093 38.6854 13.8328 38.7752C13.5896 38.8543 13.3276 38.8543 13.0844 38.7752C12.8079 38.6854 12.5681 38.4456 12.0885 37.966L9.86201 35.7396C8.90283 34.7804 8.42323 34.3008 8.24354 33.7478C8.08549 33.2613 8.08549 32.7373 8.24354 32.2508C8.42323 31.6978 8.90283 31.2182 9.86201 30.259L12.0885 28.0326Z"
            fill="url(#paint6_radial_44246_49367)"
        />
        <path
            fill-rule="evenodd"
            clip-rule="evenodd"
            d="M16.8563 13.4811L16.857 13.4817L13.0357 17.7235L8.125 12.3182V9.98662C8.125 9.71887 8.43706 9.57239 8.64304 9.74345L14.0913 14.268C14.6181 14.7055 15.3819 14.7055 15.9088 14.268L16.8563 13.4811Z"
            fill="url(#paint7_linear_44246_49367)"
        />
        <path
            d="M18.9286 11.7598L16.8563 13.4807L16.857 13.4813L14.1133 15.905C13.6459 16.3179 12.9472 16.3283 12.4677 15.9295L8.125 12.3178V19.2471C8.125 20.0327 8.76184 20.6249 9.54741 20.6249L18.9286 20.6249L19.9107 16.2147L18.9286 11.7598Z"
            fill="url(#paint8_radial_44246_49367)"
        />
        <path
            fill-rule="evenodd"
            clip-rule="evenodd"
            d="M18.9285 11.7619V20.6253L20.4525 20.6253C21.2381 20.6253 21.8749 19.9884 21.8749 19.2029V9.98663C21.8749 9.71888 21.5628 9.57237 21.3569 9.74346L18.9285 11.7619Z"
            fill="url(#paint9_linear_44246_49367)"
        />
    </g>
    <defs>
        <radialGradient
            id="paint0_radial_44246_49367"
            cx="0"
            cy="0"
            r="1"
            gradientUnits="userSpaceOnUse"
            gradientTransform="translate(38.3657 20.4741) scale(21.0756 22.2768)"
        >
            <stop offset="0.5561" stop-color="#6D4AFF" />
            <stop offset="1" stop-color="#FF50C3" />
        </radialGradient>
        <linearGradient
            id="paint1_linear_44246_49367"
            x1="25.9437"
            y1="21.5039"
            x2="42.9164"
            y2="40.3703"
            gradientUnits="userSpaceOnUse"
        >
            <stop stop-color="#7341FF" />
            <stop offset="0.3593" stop-color="#B487FF" />
            <stop offset="1" stop-color="#FFC8FF" />
        </linearGradient>
        <linearGradient
            id="paint2_linear_44246_49367"
            x1="38.559"
            y1="21.4658"
            x2="29.7115"
            y2="6.20819"
            gradientUnits="userSpaceOnUse"
        >
            <stop offset="0.0660125" stop-color="#8EFFEE" />
            <stop offset="0.4499" stop-color="#C9C7FF" />
            <stop offset="1" stop-color="#7341FF" />
        </linearGradient>
        <radialGradient
            id="paint3_radial_44246_49367"
            cx="0"
            cy="0"
            r="1"
            gradientUnits="userSpaceOnUse"
            gradientTransform="translate(31.9724 7.9956) rotate(93.7553) scale(14.0386 18.1043)"
        >
            <stop offset="0.403126" stop-color="#6D4AFF" />
            <stop offset="0.9944" stop-color="#00F0C3" />
        </radialGradient>
        <radialGradient
            id="paint4_radial_44246_49367"
            cx="0"
            cy="0"
            r="1"
            gradientUnits="userSpaceOnUse"
            gradientTransform="translate(12.2748 40.143) rotate(-58.142) scale(11.4779 17.9491)"
        >
            <stop stop-color="#FFD580" />
            <stop offset="0.09375" stop-color="#F6C592" />
            <stop offset="0.205" stop-color="#EBB6A2" />
            <stop offset="0.324466" stop-color="#DFA5AF" />
            <stop offset="0.42875" stop-color="#D397BE" />
            <stop offset="0.53375" stop-color="#C486CB" />
            <stop offset="0.64875" stop-color="#B578D9" />
            <stop offset="0.77125" stop-color="#A166E5" />
            <stop offset="0.89125" stop-color="#8B57F2" />
            <stop offset="1" stop-color="#704CFF" />
        </radialGradient>
        <linearGradient
            id="paint5_linear_44246_49367"
            x1="11.8013"
            y1="23.3948"
            x2="14.4752"
            y2="39.7171"
            gradientUnits="userSpaceOnUse"
        >
            <stop stop-color="#6D4AFF" />
            <stop offset="0.392009" stop-color="#B39FFB" stop-opacity="0.978022" />
            <stop offset="1" stop-color="#FFE8DB" stop-opacity="0.8" />
        </linearGradient>
        <radialGradient
            id="paint6_radial_44246_49367"
            cx="0"
            cy="0"
            r="1"
            gradientUnits="userSpaceOnUse"
            gradientTransform="translate(11.2665 38.7447) rotate(-58.142) scale(9.23221 14.4373)"
        >
            <stop stop-color="#FFD580" />
            <stop offset="0.09375" stop-color="#F6C592" />
            <stop offset="0.205" stop-color="#EBB6A2" />
            <stop offset="0.324466" stop-color="#DFA5AF" />
            <stop offset="0.42875" stop-color="#D397BE" />
            <stop offset="0.53375" stop-color="#C486CB" />
            <stop offset="0.64875" stop-color="#B578D9" />
            <stop offset="0.77125" stop-color="#A166E5" />
            <stop offset="0.89125" stop-color="#8B57F2" />
            <stop offset="1" stop-color="#704CFF" />
        </radialGradient>
        <linearGradient
            id="paint7_linear_44246_49367"
            x1="13.2847"
            y1="17.7983"
            x2="8.67318"
            y2="1.77866"
            gradientUnits="userSpaceOnUse"
        >
            <stop stop-color="#E3D9FF" />
            <stop offset="1" stop-color="#7341FF" />
        </linearGradient>
        <radialGradient
            id="paint8_radial_44246_49367"
            cx="0"
            cy="0"
            r="1"
            gradientUnits="userSpaceOnUse"
            gradientTransform="translate(19.8594 12.8449) scale(13.7442 12.89)"
        >
            <stop offset="0.5561" stop-color="#6D4AFF" />
            <stop offset="0.9944" stop-color="#AA8EFF" />
        </radialGradient>
        <linearGradient
            id="paint9_linear_44246_49367"
            x1="26.3216"
            y1="27.7277"
            x2="15.785"
            y2="4.90552"
            gradientUnits="userSpaceOnUse"
        >
            <stop offset="0.271" stop-color="#E3D9FF" />
            <stop offset="1" stop-color="#7341FF" />
        </linearGradient>
        <clipPath id="clip0_44246_49367">
            <rect width="48" height="48" rx="12" fill="white" />
        </clipPath>
    </defs>
</svg>
