<svg width="175" height="36" fill="none" xmlns="http://www.w3.org/2000/svg">
    <path
        d="M101.92 20.427c0 1.727 1.2 2.97 3.133 2.97 1.938 0 3.131-1.243 3.132-2.97V12.21h1.926v8.371c0 2.672-2.007 4.567-5.058 4.567-3.051 0-5.053-1.895-5.053-4.567v-8.371h1.92v8.216z"
        fill="#6D4AFF"
    />
    <path
        fill-rule="evenodd"
        clip-rule="evenodd"
        d="M160.613 15.268c2.163 0 4.226 1.348 4.226 4.797v.659h-6.786c.049 1.84 1.119 2.87 2.71 2.87 1.056 0 1.864-.46 2.2-1.36l1.759.317c-.423 1.553-1.896 2.579-3.978 2.579-2.815 0-4.543-1.94-4.543-4.903 0-2.934 1.753-4.96 4.412-4.96zm.013 1.535c-1.51 0-2.492 1.174-2.566 2.529h4.959c-.007-1.46-.951-2.53-2.393-2.53zm14.358 8.136h-1.814v-1.486h-.155c-.336.61-1.02 1.671-2.76 1.671-2.318 0-3.989-1.852-3.989-4.94 0-3.095 1.696-4.915 4.002-4.915 1.777 0 2.411 1.081 2.747 1.671h.111v-4.73h1.858V24.94zm-4.319-8.092c-1.678 0-2.522 1.423-2.522 3.318 0 1.914.863 3.375 2.522 3.375 1.603 0 2.492-1.368 2.492-3.375 0-1.995-.87-3.318-2.492-3.318z"
        fill="#6D4AFF"
    />
    <path
        d="M152.938 15.393h1.958v1.49h-1.958v5.252c0 1.075.54 1.274 1.143 1.274.298 0 .529-.056.653-.08l.335 1.534c-.217.081-.615.192-1.205.198-1.466.032-2.79-.807-2.784-2.54v-5.637h-1.398v-1.491h1.398v-2.288h1.858v2.288zm-28.304 9.546h-1.859V12.21h1.859v12.728zm-7.382-9.671c1.951 0 3.25 1.236 3.25 3.597v6.073h-1.858v-5.85c-.001-1.385-.764-2.211-2.026-2.211-1.292 0-2.224.87-2.224 2.393v5.668h-1.859v-9.546h1.783v1.553h.119c.441-1.013 1.379-1.677 2.815-1.677zm11.52 9.67h-1.858v-9.545h1.858v9.544zm12.311-9.67c1.728 0 2.945 1.087 2.945 3.268v6.401h-1.857V18.71c0-1.292-.808-1.839-1.79-1.839-1.212 0-1.914.833-1.914 1.983v6.084h-1.853v-6.346c0-1.038-.714-1.72-1.746-1.72-1.056 0-1.957.894-1.957 2.18v5.886h-1.858v-9.546h1.783v1.553h.118c.398-1.05 1.336-1.677 2.598-1.677 1.274 0 2.15.633 2.566 1.677h.1c.46-1.019 1.492-1.677 2.865-1.677zm7.076 9.67h-1.858v-9.545h1.858v9.544zM127.853 11.7c.64 0 1.173.503 1.173 1.112 0 .61-.534 1.107-1.173 1.107-.647 0-1.175-.498-1.175-1.107s.528-1.112 1.175-1.112zm19.386 0c.64 0 1.174.503 1.174 1.112 0 .61-.534 1.107-1.174 1.107-.646 0-1.174-.498-1.175-1.107 0-.609.529-1.112 1.175-1.112z"
        fill="#6D4AFF"
    />
    <path
        d="M38 21.26v3.663h2.56V21.42a1.28 1.28 0 0 1 1.279-1.287h2.624a4.591 4.591 0 0 0 3.261-1.36 4.664 4.664 0 0 0 .001-6.561 4.602 4.602 0 0 0-3.265-1.358H38v4.58h2.56v-2.16h3.73c.58 0 1.134.233 1.544.645a2.2 2.2 0 0 1 0 3.104c-.41.412-.964.643-1.544.643h-2.71a3.55 3.55 0 0 0-2.528 1.055 3.65 3.65 0 0 0-.776 1.166A3.544 3.544 0 0 0 38 21.26zm11.47 3.663v-5.582c0-2.28 1.322-4.092 3.97-4.092.425-.006.849.041 1.262.14v2.297c-.301-.02-.56-.02-.682-.02-1.402 0-2.005.645-2.005 1.954v5.303H49.47zm5.994-4.733c0-2.803 2.104-4.938 5.033-4.938 2.929 0 5.033 2.135 5.033 4.937 0 2.802-2.104 4.957-5.033 4.957-2.929 0-5.033-2.158-5.033-4.957zm7.558 0c0-1.593-1.064-2.723-2.525-2.723-1.465 0-2.525 1.128-2.525 2.723 0 1.611 1.063 2.721 2.525 2.721 1.464 0 2.525-1.113 2.525-2.722zm10.646 0c0-2.803 2.104-4.938 5.032-4.938 2.926 0 5.03 2.135 5.03 4.937 0 2.802-2.104 4.957-5.03 4.957-2.928 0-5.032-2.158-5.032-4.957zm7.554 0c0-1.593-1.063-2.723-2.524-2.723-1.462 0-2.525 1.128-2.525 2.723 0 1.611 1.063 2.721 2.525 2.721 1.461 0 2.524-1.113 2.524-2.722zm3.831 4.733v-5.38c0-2.498 1.583-4.293 4.41-4.293 2.806 0 4.39 1.791 4.39 4.294v5.38h-2.525v-5.18c0-1.39-.623-2.26-1.865-2.26-1.243 0-1.865.867-1.865 2.26v5.18h-2.545zm-12.147-7.435h-2.747v3.527c0 1.23.44 1.793 1.703 1.793.12 0 .42 0 .802-.02v2.075c-.52.14-.981.224-1.484.224-2.124 0-3.569-1.29-3.569-3.729v-3.87h-1.706v-2.035h.427a1.284 1.284 0 0 0 1.279-1.287v-1.918h2.545v3.205h2.747v2.035h.003z"
        fill="#000"
    />
    <g clip-path="url(#clip0_44225_79421)">
        <path
            fill-rule="evenodd"
            clip-rule="evenodd"
            d="M1.992 13.223a6.693 6.693 0 0 0 0 9.528c2.656 2.631 6.962 2.631 9.618 0l2.522-2.498 2.523 2.498c2.656 2.631 6.962 2.631 9.618 0a6.693 6.693 0 0 0 0-9.528c-2.656-2.63-6.962-2.63-9.618 0l-2.523 2.499-2.522-2.499c-2.656-2.63-6.962-2.63-9.618 0zm2.302 7.248a3.49 3.49 0 0 1 0-4.968 3.57 3.57 0 0 1 5.014 0l2.508 2.484-2.508 2.484a3.57 3.57 0 0 1-5.014 0zm14.662 0a3.57 3.57 0 0 0 5.015 0 3.49 3.49 0 0 0 0-4.968 3.57 3.57 0 0 0-5.015 0l-2.507 2.484 2.507 2.484z"
            fill="url(#paint0_radial_44225_79421)"
        />
        <path
            opacity=".4"
            d="M5.678 14.654a3.57 3.57 0 0 1 3.632.849l2.507 2.483 2.333-2.248-.016-.017-2.523-2.498a6.784 6.784 0 0 0-2.798-1.674l-3.135 3.105z"
            fill="url(#paint1_linear_44225_79421)"
        />
        <path
            opacity=".4"
            d="M19.807 24.52l3.692-3.658a3.572 3.572 0 0 1-4.542-.394l-2.508-2.484-2.316 2.266 2.522 2.498a6.785 6.785 0 0 0 3.152 1.771z"
            fill="url(#paint2_linear_44225_79421)"
        />
    </g>
    <defs>
        <radialGradient
            id="paint0_radial_44225_79421"
            cx="0"
            cy="0"
            r="1"
            gradientUnits="userSpaceOnUse"
            gradientTransform="matrix(35.9511 0 0 13.562 28.365 9.38)"
        >
            <stop stop-color="#A995FF" />
            <stop offset="1" stop-color="#6652F5" />
        </radialGradient>
        <linearGradient
            id="paint1_linear_44225_79421"
            x1="9.251"
            y1="13.892"
            x2="12.759"
            y2="17.256"
            gradientUnits="userSpaceOnUse"
        >
            <stop stop-color="#1C0554" stop-opacity="0" />
            <stop offset="1" stop-color="#1C0554" />
        </linearGradient>
        <linearGradient
            id="paint2_linear_44225_79421"
            x1="15.354"
            y1="19.129"
            x2="18.582"
            y2="21.981"
            gradientUnits="userSpaceOnUse"
        >
            <stop stop-color="#1C0554" />
            <stop offset="1" stop-color="#1C0554" stop-opacity="0" />
        </linearGradient>
        <clipPath id="clip0_44225_79421">
            <path fill="#fff" transform="translate(0 11.25)" d="M0 0H28.265V13.475H0z" />
        </clipPath>
    </defs>
</svg>
